<?xml version="1.0" standalone="no"?>
<!DOCTYPE svg PUBLIC "-//W3C//DTD SVG 20010904//EN"
 "http://www.w3.org/TR/2001/REC-SVG-20010904/DTD/svg10.dtd">
<svg version="1.0" xmlns="http://www.w3.org/2000/svg"
 width="600.000000pt" height="600.000000pt" viewBox="0 0 600.000000 600.000000"
 preserveAspectRatio="xMidYMid meet">
<metadata>
Created by potrace 1.14, written by Peter Selinger 2001-2017
</metadata>
<g transform="translate(0.000000,600.000000) scale(0.100000,-0.100000)"
fill="#000000" stroke="none">
<path d="M2067 5480 c-27 -5 -54 -13 -61 -19 -8 -6 -21 -9 -29 -5 -16 6 -77
-15 -77 -27 0 -3 -20 -19 -45 -35 -25 -15 -56 -44 -68 -63 -41 -61 -71 -180
-54 -208 4 -6 3 -15 -3 -18 -8 -5 -7 -11 1 -21 6 -8 9 -28 7 -45 -4 -25 -1
-33 13 -36 14 -4 17 -11 13 -30 -5 -18 -1 -28 15 -39 37 -26 18 -74 -41 -104
-15 -7 -30 -22 -34 -32 -3 -10 -17 -26 -30 -35 -14 -9 -31 -28 -39 -42 -7 -14
-31 -45 -52 -67 -21 -23 -49 -58 -63 -78 -14 -20 -42 -59 -62 -85 -21 -27 -38
-52 -38 -56 0 -4 -13 -27 -30 -52 -16 -24 -30 -48 -30 -52 0 -5 -11 -29 -25
-52 -14 -24 -25 -53 -25 -64 0 -11 -6 -29 -14 -40 -28 -40 -73 -288 -84 -461
-9 -149 2 -287 35 -434 21 -92 38 -139 92 -245 66 -128 137 -239 190 -293 14
-15 50 -55 79 -89 29 -34 82 -85 117 -114 66 -53 78 -78 49 -101 -8 -7 -24
-21 -35 -30 -10 -10 -22 -18 -27 -18 -4 0 -18 -14 -32 -32 -14 -17 -55 -63
-91 -102 -199 -212 -318 -364 -325 -412 -2 -20 -8 -43 -13 -52 -5 -9 -8 -43
-8 -74 2 -50 6 -62 40 -103 21 -25 46 -45 57 -45 10 0 25 -6 32 -14 10 -9 32
-12 78 -9 36 3 77 5 92 4 19 0 44 17 90 61 73 70 120 108 135 108 6 0 13 -55
18 -139 3 -76 13 -183 21 -237 7 -54 16 -128 19 -164 4 -36 13 -90 21 -120 9
-30 22 -80 30 -110 8 -30 22 -69 30 -87 7 -17 14 -36 14 -41 0 -10 44 -87 83
-146 99 -151 285 -267 394 -246 76 14 121 31 127 45 3 8 12 15 19 15 22 0 131
113 152 157 6 11 24 37 40 58 17 20 39 48 51 62 28 35 117 43 329 29 39 -2 91
-5 117 -5 46 -1 48 -3 81 -53 18 -29 39 -67 46 -84 7 -18 28 -48 47 -69 18
-20 43 -52 55 -71 11 -19 26 -34 32 -34 7 0 17 -8 24 -18 26 -43 165 -77 201
-49 10 8 16 7 22 -2 5 -9 10 -10 14 -2 4 6 15 11 26 11 10 0 20 7 24 15 3 8
14 15 24 15 21 0 92 60 92 76 0 6 15 28 33 50 18 21 38 51 45 67 6 15 16 27
22 27 5 0 10 6 10 13 0 8 13 40 29 73 16 32 32 78 35 101 3 23 11 54 16 68 9
25 14 27 48 21 106 -19 110 -19 115 1 26 91 49 179 61 233 17 70 11 84 -31 77
-13 -2 -19 1 -17 8 3 6 -11 15 -33 21 l-38 9 5 125 c3 69 5 178 5 243 0 64 3
117 6 117 3 0 13 -16 22 -35 9 -19 22 -35 29 -35 7 0 31 -27 53 -60 21 -32 42
-57 46 -54 4 2 12 -3 19 -11 6 -7 18 -11 26 -8 8 3 14 0 14 -6 0 -6 9 -11 21
-11 11 0 29 -4 39 -10 32 -17 108 0 140 31 16 16 32 29 37 29 21 1 57 56 69
106 12 52 11 61 -10 123 -36 103 -102 216 -161 271 -14 13 -25 27 -25 32 0 11
-136 172 -184 217 -19 19 -33 37 -31 42 3 4 -1 9 -9 12 -15 6 -46 62 -46 82 0
7 25 36 56 66 82 80 188 216 249 321 89 151 160 310 154 344 0 4 4 10 10 13
11 7 50 216 61 336 15 156 -38 451 -110 610 -70 154 -96 203 -152 282 -21 29
-38 56 -38 60 0 5 -8 16 -17 25 -10 9 -29 33 -43 53 -14 20 -33 46 -42 56 -10
10 -18 23 -18 28 0 5 -16 21 -35 35 -19 15 -35 34 -35 42 0 8 -23 37 -52 65
-49 47 -50 50 -32 64 10 8 22 15 27 15 4 0 7 5 7 12 0 6 7 19 15 28 35 39 79
220 53 220 -5 0 -7 9 -3 20 5 16 -25 90 -45 110 -3 3 -12 19 -20 35 -18 38
-45 65 -64 65 -8 0 -19 6 -23 14 -7 13 -135 68 -158 67 -80 -2 -166 -9 -172
-14 -3 -4 -15 -7 -25 -7 -10 0 -18 -5 -18 -10 0 -6 -3 -9 -7 -8 -26 5 -108
-65 -98 -83 3 -4 1 -10 -3 -13 -5 -3 -15 -27 -22 -53 -23 -85 -37 -104 -68
-97 -15 4 -31 10 -37 14 -5 4 -55 13 -110 19 -55 6 -118 14 -140 17 -143 20
-465 11 -635 -18 -36 -6 -77 -11 -92 -12 -16 0 -28 -4 -28 -7 0 -4 -19 -9 -42
-12 -24 -3 -57 -9 -75 -12 -35 -8 -37 -5 -48 77 -3 25 -13 52 -20 58 -8 7 -15
18 -15 25 0 34 -150 121 -240 140 -8 2 -37 -1 -63 -5z m1390 -1147 c28 -35 30
-89 3 -123 -16 -21 -26 -25 -70 -23 -41 1 -56 6 -75 28 -45 48 -27 124 35 148
32 13 85 -2 107 -30z m-746 1 c27 -24 32 -47 19 -94 -9 -33 -18 -44 -45 -56
-73 -30 -127 -6 -141 64 -6 28 -1 37 32 71 34 33 44 38 77 36 22 -2 47 -11 58
-21z m423 -446 c14 -6 28 -20 32 -30 9 -31 -5 -86 -26 -101 -25 -17 -36 -102
-18 -137 7 -14 33 -35 58 -47 63 -32 106 -18 168 54 64 75 92 70 92 -16 0 -40
-37 -106 -85 -151 -23 -22 -36 -25 -99 -25 -64 0 -78 4 -114 29 -51 35 -92 31
-166 -17 -68 -43 -155 -50 -218 -16 -81 44 -115 76 -126 120 -11 45 -4 76 23
99 15 12 20 10 43 -21 59 -77 97 -99 167 -99 32 0 81 44 95 84 10 31 7 40 -30
110 -42 81 -50 125 -25 146 15 12 95 25 172 29 18 0 43 -4 57 -11z m1136
-2659 c0 -5 -7 -9 -15 -9 -15 0 -20 12 -9 23 8 8 24 -1 24 -14z m-13 -34 c3
-9 3 -19 -1 -22 -8 -9 -37 18 -30 28 8 14 24 11 31 -6z m-17 -35 c0 -5 -4 -10
-10 -10 -5 0 -10 5 -10 10 0 6 5 10 10 10 6 0 10 -4 10 -10z m-10 -35 c0 -8
-4 -15 -9 -15 -13 0 -22 16 -14 24 11 11 23 6 23 -9z m-18 -67 c-9 -9 -12 -7
-12 12 0 19 3 21 12 12 9 -9 9 -15 0 -24z m-7 -48 c3 -5 -1 -10 -9 -10 -9 0
-16 5 -16 10 0 6 4 10 9 10 6 0 13 -4 16 -10z"/>
</g>
</svg>
